<?xml version="1.0" encoding="utf-8"?>
<!-- Uploaded to: SVG Repo, www.svgrepo.com, Generator: SVG Repo Mixer Tools -->
<svg version="1.1" id="Icons" xmlns="http://www.w3.org/2000/svg" xmlns:xlink="http://www.w3.org/1999/xlink"
	 viewBox="0 0 32 32" xml:space="preserve">
<style type="text/css">
	.st0{fill:none;stroke:#000000;stroke-width:2;stroke-linecap:round;stroke-linejoin:round;stroke-miterlimit:10;}
	@media (prefers-color-scheme: dark){ .st0{stroke:#ffffff;} }
</style>
<path class="st0" d="M16,16L16,16c-3.3,0-6-2.7-6-6v0h0C13.3,10,16,12.7,16,16L16,16z"/>
<path class="st0" d="M16,16L16,16c3.3,0,6-2.7,6-6v0h0C18.7,10,16,12.7,16,16L16,16z"/>
<path class="st0" d="M16,13.2L16,13.2c2.3-2.3,2.3-6.1,0-8.5l0,0l0,0C13.7,7.1,13.7,10.9,16,13.2L16,13.2z"/>
<path class="st0" d="M16,21L16,21c-3.3,0-6-2.7-6-6v0h0C13.3,15,16,17.7,16,21L16,21z"/>
<path class="st0" d="M16,21L16,21c3.3,0,6-2.7,6-6v0h0C18.7,15,16,17.7,16,21L16,21z"/>
<path class="st0" d="M16,26L16,26c-3.3,0-6-2.7-6-6v0h0C13.3,20,16,22.7,16,26L16,26z"/>
<path class="st0" d="M16,26L16,26c3.3,0,6-2.7,6-6v0h0C18.7,20,16,22.7,16,26L16,26z"/>
<line class="st0" x1="16" y1="31" x2="16" y2="26"/>
<line class="st0" x1="16" y1="5" x2="16" y2="1"/>
<line class="st0" x1="21" y1="10" x2="21" y2="4"/>
<line class="st0" x1="11" y1="10" x2="11" y2="4"/>
</svg>
